<svg width="21" height="21" viewBox="0 0 21 21" fill="none" xmlns="http://www.w3.org/2000/svg">
<path d="M2.34868 15.4983L2.40019 15.3084L2.30231 15.1377C1.50774 13.7521 1.04451 12.1014 1.04451 10.4558C1.04451 5.24727 5.27907 1.02505 10.5098 1.02505C13.0247 1.02505 15.4068 2.01371 17.1952 3.79588C18.9769 5.57143 19.907 7.94332 19.975 10.3929C19.9715 15.5985 15.7383 19.8172 10.5098 19.8172C8.92199 19.8172 7.39826 19.422 6.00273 18.6935L5.84 18.6086L5.66244 18.6552L1.17322 19.8324L2.34868 15.4983ZM11.9327 15.5382L11.9625 15.5501L11.9937 15.5578C12.6147 15.7125 13.2344 15.714 13.7106 15.6356C14.049 15.5859 14.4782 15.3915 14.8367 15.1565C15.1873 14.9266 15.5912 14.5796 15.7507 14.1559C15.8707 13.8369 15.9325 13.5336 15.9534 13.2733C15.9734 13.0239 15.9586 12.7794 15.8956 12.591L15.86 12.4845L15.7804 12.4053C15.6961 12.3212 15.5946 12.2604 15.5101 12.2136C15.4257 12.1668 15.3181 12.1131 15.1926 12.0506C15.0364 11.9535 14.6671 11.7627 14.3362 11.5979C14.1515 11.5058 13.9655 11.4154 13.8114 11.343C13.6694 11.2764 13.5244 11.2106 13.44 11.1826C13.4346 11.1808 13.4285 11.1788 13.4219 11.1765C13.3338 11.1467 13.1421 11.0817 12.9433 11.0997C12.8187 11.111 12.6877 11.153 12.5676 11.242C12.4513 11.3282 12.3688 11.4408 12.3096 11.5589C12.267 11.6438 12.1435 11.8139 11.9847 12.0074C11.8422 12.1809 11.7049 12.333 11.6444 12.395C11.6386 12.3923 11.6322 12.3893 11.6252 12.3858C11.5762 12.3614 11.5172 12.3345 11.4489 12.3035C11.0911 12.1407 10.4792 11.8622 9.71137 11.2075C9.06126 10.6172 8.63066 9.97645 8.47174 9.69377C8.4749 9.69061 8.47819 9.68733 8.48163 9.6839C8.52038 9.64529 8.5571 9.59994 8.58208 9.56855C8.60023 9.54574 8.62132 9.51858 8.64137 9.49275C8.65078 9.48063 8.65996 9.46881 8.6685 9.45786C8.72938 9.37987 8.78284 9.31447 8.82919 9.26828C9.02321 9.07493 9.12179 8.87826 9.19113 8.73993L9.19651 8.72921C9.33328 8.45662 9.33328 8.16014 9.19651 7.88755L9.1619 7.81858L9.1512 7.80792C9.13552 7.77543 9.11426 7.72864 9.08773 7.66791C9.03138 7.53897 8.95926 7.36572 8.88118 7.17552C8.83293 7.05798 8.78228 6.93364 8.73221 6.81072C8.62301 6.54266 8.51655 6.28132 8.44367 6.11187C8.31776 5.8191 8.14918 5.59044 7.89919 5.4772C7.67995 5.37789 7.41542 5.4089 7.45122 5.4089H7.4504H7.44958H7.44877H7.44795H7.44712H7.4463H7.44548H7.44465H7.44382H7.44299H7.44216H7.44133H7.44049H7.43966H7.43882H7.43798H7.43714H7.4363H7.43546H7.43461H7.43377H7.43292H7.43207H7.43122H7.43037H7.42952H7.42866H7.42781H7.42695H7.42609H7.42523H7.42437H7.42351H7.42264H7.42178H7.42091H7.42004H7.41917H7.4183H7.41743H7.41655H7.41568H7.4148H7.41392H7.41304H7.41216H7.41128H7.4104H7.40951H7.40863H7.40774H7.40685H7.40596H7.40507H7.40418H7.40329H7.40239H7.4015H7.4006H7.3997H7.3988H7.3979H7.397H7.3961H7.39519H7.39429H7.39338H7.39247H7.39156H7.39065H7.38974H7.38883H7.38791H7.387H7.38608H7.38517H7.38425H7.38333H7.38241H7.38149H7.38057H7.37964H7.37872H7.37779H7.37686H7.37594H7.37501H7.37408H7.37315H7.37221H7.37128H7.37035H7.36941H7.36848H7.36754H7.3666H7.36566H7.36472H7.36378H7.36284H7.36189H7.36095H7.36001H7.35906H7.35811H7.35716H7.35622H7.35527H7.35432H7.35336H7.35241H7.35146H7.3505H7.34955H7.34859H7.34764H7.34668H7.34572H7.34476H7.3438H7.34284H7.34188H7.34091H7.33995H7.33899H7.33802H7.33705H7.33609H7.33512H7.33415H7.33318H7.33221H7.33124H7.33027H7.3293H7.32832H7.32735H7.32638H7.3254H7.32442H7.32345H7.32247H7.32149H7.32051H7.31953H7.31855H7.31757H7.31659H7.31561H7.31462H7.31364H7.31266H7.31167H7.31069H7.3097H7.30871H7.30773H7.30674H7.30575H7.30476H7.30377H7.30278H7.30179H7.3008H7.2998H7.29881H7.29782H7.29682H7.29583H7.29483H7.29384H7.29284H7.29185H7.29085H7.28985H7.28885H7.28785H7.28686H7.28586H7.28486H7.28386H7.28285H7.28185H7.28085H7.27985H7.27885H7.27784H7.27684H7.27584H7.27483H7.27383H7.27282H7.27181H7.27081H7.2698H7.2688H7.26779H7.26678H7.26577H7.26476H7.26376H7.26275H7.26174H7.26073H7.25972H7.25871H7.2577H7.25669H7.25567H7.25466H7.25365H7.25264H7.25163H7.25061H7.2496H7.24859H7.24757H7.24656H7.24555H7.24453H7.24352H7.2425H7.24149H7.24047H7.23946H7.23844H7.23743H7.23641H7.2354H7.23438H7.23336H7.23235H7.23133H7.23031H7.2293H7.22828H7.22726H7.22625H7.22523H7.22421H7.22319H7.22218H7.22116H7.22014H7.21912H7.21811H7.21709H7.21607H7.21505H7.21403H7.21302H7.212H7.21098H7.20996H7.20894H7.20792H7.20691H7.20589H7.20487H7.20385H7.20283H7.20182H7.2008H7.19978H7.19876H7.19774H7.19673H7.19571H7.19469H7.19367H7.19265H7.19164H7.19062H7.1896H7.18859H7.18757H7.18655H7.18553H7.18452H7.1835H7.18248H7.18147H7.18045H7.17944H7.17842H7.17741H7.17639H7.17537H7.17436H7.17335H7.17233H7.17132H7.1703H7.16929H7.16827H7.16726H7.16625H7.16524H7.16422H7.16321H7.1622H7.16119H7.16017H7.15916H7.15815H7.15714H7.15613H7.15512H7.15411H7.1531H7.15209H7.15108H7.15008H7.14907H7.14806H7.14705H7.14605H7.14504H7.14403H7.14303H7.14202H7.14102H7.14001H7.13901H7.13801H7.137H7.136H7.135H7.134H7.13299H7.13199H7.13099H7.12999H7.12899H7.12799H7.127H7.126H7.125H7.124H7.12301H7.12201H7.12102H7.12002H7.11903H7.11803H7.11704H7.11605H7.11505H7.11406H7.11307H7.11208H7.11109H7.1101H7.10911H7.10812H7.10714H7.10615H7.10516H7.10418H7.10319H7.10221H7.10122H7.10024H7.09926H7.09828H7.0973H7.09632H7.09534H7.09436H7.09338H7.0924H7.09143H7.09045H7.08947H7.0885H7.08753H7.08655H7.08558H7.08461H7.08364H7.08267H7.0817H7.08073H7.07976H7.0788H7.07783H7.07686H7.0759H7.07494H7.07397H7.07301H7.07205H7.07109H7.07013H7.06917H7.06821H7.06726H7.0663H7.06535H7.06439H7.06344H7.06249H7.06153H7.06058H7.05963H7.05868H7.05774H7.05679H7.05584H7.0549H7.05395H7.05301H7.05207H7.05113H7.05019H7.04925H7.04831H7.04737H7.04644H7.0455H7.04457H7.04363H7.0427H7.04177H7.04084H7.03991H7.03898H7.03806H7.03713H7.03621H7.03528H7.03436H7.03344H7.03252H7.0316H7.03068H7.02977H7.02885H7.02793H7.02702H7.02611H7.0252H7.02429H7.02338H7.02247H7.02156H7.02066H7.01975H7.01885H7.01795H7.01705H7.01615H7.01525H7.01435H7.01346H7.01256H7.01167H7.01078H7.00989H7.009H7.00811H7.00722H7.00634H7.00545H7.00457H7.00369H7.00281H7.00193H7.00105H7.00017H6.9993H6.99842H6.99755H6.99668H6.99581H6.99494H6.99407H6.99321H6.99234H6.99148H6.99062H6.98976H6.9889H6.98804H6.98719H6.98633H6.98548H6.98463H6.98378H6.98293H6.98208H6.98124H6.98039H6.97955H6.97871H6.97787H6.97703H6.97619H6.97535H6.97452H6.97369H6.97286H6.97203H6.9712H6.97037H6.96955H6.96873H6.9679H6.96708H6.96627H6.96545H6.96463C6.95901 5.4089 6.95316 5.40889 6.94708 5.40888C6.73357 5.40847 6.24208 5.40752 5.88999 5.87535C5.87902 5.88992 5.85921 5.91338 5.83291 5.94453C5.72814 6.06862 5.5204 6.31467 5.35884 6.60601C5.13986 7.00088 4.96037 7.52991 4.96037 8.23911C4.96037 8.96979 5.22243 9.65432 5.4832 10.1555C5.71543 10.6018 5.97126 10.9487 6.10336 11.0966C6.33617 11.4492 7.97308 13.9102 10.5211 14.9752C10.9307 15.1779 11.3329 15.3212 11.6329 15.428C11.7504 15.4699 11.8522 15.5061 11.9327 15.5382ZM9.16698 7.83924C9.167 7.83927 9.167 7.83926 9.16698 7.83923L9.16698 7.83924Z" stroke="white" style="stroke:white;stroke:white;stroke-opacity:1;" stroke-width="0.95"/>
</svg>
