<svg width="213" height="276" viewBox="0 0 213 276" fill="none" xmlns="http://www.w3.org/2000/svg">
<g filter="url(#filter0_d_40_423)">
<path d="M30.7805 76.7561C30.7805 48.5559 53.6413 25.6951 81.8415 25.6951H182.037V240.537H30.7805V76.7561Z" fill="white" style="fill:white;fill:white;fill-opacity:1;"/>
</g>
<path d="M78.4574 129.027H86.1648V139.817H85.0857V130.044H79.5365V139.817H78.4574V129.027ZM92.6105 131.925C93.7101 131.925 94.6452 132.315 95.416 133.096C96.197 133.877 96.5875 134.833 96.5875 135.963C96.5875 137.094 96.197 138.05 95.416 138.831C94.6452 139.612 93.7101 140.002 92.6105 140.002C91.2437 140.002 90.2058 139.437 89.4967 138.307V142.9H88.4794V132.11H89.4967V133.62C90.2058 132.49 91.2437 131.925 92.6105 131.925ZM90.3754 138.137C90.9611 138.723 91.6805 139.016 92.5334 139.016C93.3864 139.016 94.1057 138.723 94.6915 138.137C95.2772 137.531 95.5701 136.806 95.5701 135.963C95.5701 135.111 95.2772 134.391 94.6915 133.805C94.1057 133.209 93.3864 132.911 92.5334 132.911C91.6805 132.911 90.9611 133.209 90.3754 133.805C89.7896 134.391 89.4967 135.111 89.4967 135.963C89.4967 136.806 89.7896 137.531 90.3754 138.137ZM99.2965 138.044L103.89 132.11H104.753V139.817H103.736V133.883L99.1423 139.817H98.2791V132.11H99.2965V138.044ZM113.286 132.11H114.458V139.817H113.44V133.667L110.743 138.044H110.62L107.922 133.667V139.817H106.905V132.11H108.076L110.681 136.333L113.286 132.11ZM120.175 131.925C121.326 131.925 122.246 132.331 122.934 133.143C123.643 133.944 123.998 134.895 123.998 135.994C123.998 136.046 123.987 136.205 123.967 136.472H117.2C117.303 137.243 117.631 137.859 118.186 138.322C118.741 138.784 119.435 139.016 120.267 139.016C121.439 139.016 122.266 138.579 122.749 137.705L123.643 138.229C123.304 138.784 122.836 139.221 122.24 139.54C121.655 139.848 120.992 140.002 120.252 140.002C119.039 140.002 118.053 139.622 117.292 138.861C116.532 138.101 116.152 137.135 116.152 135.963C116.152 134.802 116.527 133.841 117.277 133.081C118.027 132.31 118.993 131.925 120.175 131.925ZM120.175 132.911C119.373 132.911 118.7 133.148 118.156 133.62C117.621 134.093 117.303 134.715 117.2 135.486H122.949C122.836 134.664 122.523 134.032 122.009 133.59C121.475 133.137 120.863 132.911 120.175 132.911ZM129.747 131.925C130.847 131.925 131.782 132.315 132.553 133.096C133.334 133.877 133.724 134.833 133.724 135.963C133.724 137.094 133.334 138.05 132.553 138.831C131.782 139.612 130.847 140.002 129.747 140.002C128.38 140.002 127.342 139.437 126.633 138.307V142.9H125.616V132.11H126.633V133.62C127.342 132.49 128.38 131.925 129.747 131.925ZM127.512 138.137C128.098 138.723 128.817 139.016 129.67 139.016C130.523 139.016 131.242 138.723 131.828 138.137C132.414 137.531 132.707 136.806 132.707 135.963C132.707 135.111 132.414 134.391 131.828 133.805C131.242 133.209 130.523 132.911 129.67 132.911C128.817 132.911 128.098 133.209 127.512 133.805C126.926 134.391 126.633 135.111 126.633 135.963C126.633 136.806 126.926 137.531 127.512 138.137ZM78.3271 149.11V155.831H79.4061V158.883H78.3887V156.817H72.0996V158.883H71.0822V155.831H72.0225C72.5466 155.132 72.8086 154.161 72.8086 152.917V149.11H78.3271ZM73.2557 155.831H77.3097V150.096H73.826V152.917C73.826 154.109 73.6359 155.08 73.2557 155.831ZM87.1028 155.846C86.3115 156.617 85.3558 157.002 84.2357 157.002C83.095 157.002 82.1342 156.617 81.3532 155.846C80.5722 155.065 80.1817 154.104 80.1817 152.963C80.1817 151.823 80.5722 150.867 81.3532 150.096C82.1342 149.315 83.095 148.925 84.2357 148.925C85.3661 148.925 86.3218 149.315 87.1028 150.096C87.8941 150.867 88.2898 151.823 88.2898 152.963C88.2898 154.094 87.8941 155.055 87.1028 155.846ZM82.0777 155.137C82.6634 155.723 83.3828 156.016 84.2357 156.016C85.0887 156.016 85.808 155.723 86.3938 155.137C86.9795 154.531 87.2724 153.806 87.2724 152.963C87.2724 152.111 86.9795 151.391 86.3938 150.805C85.808 150.209 85.0887 149.911 84.2357 149.911C83.3828 149.911 82.6634 150.209 82.0777 150.805C81.4919 151.391 81.199 152.111 81.199 152.963C81.199 153.806 81.4919 154.531 82.0777 155.137ZM89.9922 149.11H94.9249V150.096H91.0096V156.817H89.9922V149.11ZM102.322 155.846C101.53 156.617 100.575 157.002 99.4546 157.002C98.314 157.002 97.3531 156.617 96.5721 155.846C95.7911 155.065 95.4006 154.104 95.4006 152.963C95.4006 151.823 95.7911 150.867 96.5721 150.096C97.3531 149.315 98.314 148.925 99.4546 148.925C100.585 148.925 101.541 149.315 102.322 150.096C103.113 150.867 103.509 151.823 103.509 152.963C103.509 154.094 103.113 155.055 102.322 155.846ZM97.2966 155.137C97.8824 155.723 98.6017 156.016 99.4546 156.016C100.308 156.016 101.027 155.723 101.613 155.137C102.198 154.531 102.491 153.806 102.491 152.963C102.491 152.111 102.198 151.391 101.613 150.805C101.027 150.209 100.308 149.911 99.4546 149.911C98.6017 149.911 97.8824 150.209 97.2966 150.805C96.7108 151.391 96.418 152.111 96.418 152.963C96.418 153.806 96.7108 154.531 97.2966 155.137ZM110.113 152.856C110.956 153.164 111.377 153.765 111.377 154.659C111.377 155.296 111.161 155.815 110.73 156.216C110.308 156.617 109.717 156.817 108.957 156.817H105.211V149.11H108.649C109.389 149.11 109.964 149.3 110.375 149.68C110.796 150.06 111.007 150.559 111.007 151.175C111.007 151.946 110.709 152.506 110.113 152.856ZM108.649 150.096H106.229V152.439H108.649C109.543 152.439 109.99 152.039 109.99 151.237C109.99 150.877 109.872 150.6 109.635 150.405C109.409 150.199 109.08 150.096 108.649 150.096ZM106.229 155.831H108.957C109.409 155.831 109.753 155.723 109.99 155.507C110.236 155.291 110.36 154.988 110.36 154.597C110.36 154.227 110.236 153.94 109.99 153.734C109.753 153.529 109.409 153.426 108.957 153.426H106.229V155.831ZM119.377 155.846C118.586 156.617 117.63 157.002 116.51 157.002C115.369 157.002 114.409 156.617 113.628 155.846C112.847 155.065 112.456 154.104 112.456 152.963C112.456 151.823 112.847 150.867 113.628 150.096C114.409 149.315 115.369 148.925 116.51 148.925C117.641 148.925 118.596 149.315 119.377 150.096C120.169 150.867 120.564 151.823 120.564 152.963C120.564 154.094 120.169 155.055 119.377 155.846ZM114.352 155.137C114.938 155.723 115.657 156.016 116.51 156.016C117.363 156.016 118.082 155.723 118.668 155.137C119.254 154.531 119.547 153.806 119.547 152.963C119.547 152.111 119.254 151.391 118.668 150.805C118.082 150.209 117.363 149.911 116.51 149.911C115.657 149.911 114.938 150.209 114.352 150.805C113.766 151.391 113.473 152.111 113.473 152.963C113.473 153.806 113.766 154.531 114.352 155.137ZM126.398 148.925C127.497 148.925 128.432 149.315 129.203 150.096C129.984 150.877 130.375 151.833 130.375 152.963C130.375 154.094 129.984 155.05 129.203 155.831C128.432 156.612 127.497 157.002 126.398 157.002C125.031 157.002 123.993 156.437 123.284 155.307V159.9H122.267V149.11H123.284V150.62C123.993 149.49 125.031 148.925 126.398 148.925ZM124.163 155.137C124.748 155.723 125.468 156.016 126.321 156.016C127.174 156.016 127.893 155.723 128.479 155.137C129.064 154.531 129.357 153.806 129.357 152.963C129.357 152.111 129.064 151.391 128.479 150.805C127.893 150.209 127.174 149.911 126.321 149.911C125.468 149.911 124.748 150.209 124.163 150.805C123.577 151.391 123.284 152.111 123.284 152.963C123.284 153.806 123.577 154.531 124.163 155.137ZM138.695 150.62V149.11H139.712V156.817H138.695V155.307C137.986 156.437 136.948 157.002 135.581 157.002C134.481 157.002 133.541 156.612 132.76 155.831C131.989 155.05 131.604 154.094 131.604 152.963C131.604 151.833 131.989 150.877 132.76 150.096C133.541 149.315 134.481 148.925 135.581 148.925C136.948 148.925 137.986 149.49 138.695 150.62ZM133.5 155.137C134.086 155.723 134.805 156.016 135.658 156.016C136.511 156.016 137.23 155.723 137.816 155.137C138.402 154.531 138.695 153.806 138.695 152.963C138.695 152.111 138.402 151.391 137.816 150.805C137.23 150.209 136.511 149.911 135.658 149.911C134.805 149.911 134.086 150.209 133.5 150.805C132.914 151.391 132.621 152.111 132.621 152.963C132.621 153.806 132.914 154.531 133.5 155.137Z" fill="#505457" style="fill:#505457;fill:color(display-p3 0.3137 0.3294 0.3412);fill-opacity:1;"/>
<path d="M78.9512 91.2073H134.348" stroke="#EFAD3D" style="stroke:#EFAD3D;stroke:color(display-p3 0.9373 0.6784 0.2392);stroke-opacity:1;" stroke-width="0.963415"/>
<path d="M61.6097 100.842H152.171" stroke="#EFAD3D" style="stroke:#EFAD3D;stroke:color(display-p3 0.9373 0.6784 0.2392);stroke-opacity:1;" stroke-width="0.963415"/>
<path d="M78.9512 110.476H134.348" stroke="#EFAD3D" style="stroke:#EFAD3D;stroke:color(display-p3 0.9373 0.6784 0.2392);stroke-opacity:1;" stroke-width="0.963415"/>
<circle cx="106.89" cy="198.146" r="22.1585" fill="#F3AC3C" style="fill:#F3AC3C;fill:color(display-p3 0.9529 0.6745 0.2353);fill-opacity:1;"/>
<path d="M103.518 196.219H101.11L106.409 201.518L111.707 196.219H109.299V190.439H103.518V196.219Z" fill="#FEFEF8" style="fill:#FEFEF8;fill:color(display-p3 0.9961 0.9961 0.9725);fill-opacity:1;"/>
<path d="M99.1829 199.592V204.409C99.1829 204.941 99.6143 205.372 100.146 205.372H112.189C112.721 205.372 113.152 204.941 113.152 204.409V199.592" stroke="#FEFEF8" style="stroke:#FEFEF8;stroke:color(display-p3 0.9961 0.9961 0.9725);stroke-opacity:1;" stroke-width="0.963415"/>
<defs>
<filter id="filter0_d_40_423" x="0.780518" y="0.695068" width="211.256" height="274.842" filterUnits="userSpaceOnUse" color-interpolation-filters="sRGB">
<feFlood flood-opacity="0" result="BackgroundImageFix"/>
<feColorMatrix in="SourceAlpha" type="matrix" values="0 0 0 0 0 0 0 0 0 0 0 0 0 0 0 0 0 0 127 0" result="hardAlpha"/>
<feOffset dy="5"/>
<feGaussianBlur stdDeviation="15"/>
<feComposite in2="hardAlpha" operator="out"/>
<feColorMatrix type="matrix" values="0 0 0 0 0.415125 0 0 0 0 0.39375 0 0 0 0 0.45 0 0 0 0.2 0"/>
<feBlend mode="normal" in2="BackgroundImageFix" result="effect1_dropShadow_40_423"/>
<feBlend mode="normal" in="SourceGraphic" in2="effect1_dropShadow_40_423" result="shape"/>
</filter>
</defs>
</svg>
