<svg width="29" height="29" viewBox="0 0 29 29" fill="none" xmlns="http://www.w3.org/2000/svg">
<path d="M14.36 0.731327C21.9385 0.731327 28.0821 6.87488 28.0821 14.4534C28.0821 22.0318 21.9385 28.1754 14.36 28.1754C6.78156 28.1754 0.638004 22.0318 0.638004 14.4534C0.638004 6.87488 6.78156 0.731327 14.36 0.731327Z" fill="white" stroke="#C2C2C2" style="fill:white;fill:white;fill-opacity:1;stroke:#C2C2C2;stroke:color(display-p3 0.7608 0.7608 0.7608);stroke-opacity:1;" stroke-width="0.914802"/>
<path fill-rule="evenodd" clip-rule="evenodd" d="M21.299 14.6142C21.299 14.1115 21.2539 13.6281 21.1701 13.1641H14.4929V15.9065H18.3084C18.1441 16.7927 17.6446 17.5436 16.8937 18.0463V19.8252H19.185C20.5256 18.5909 21.299 16.7734 21.299 14.6142Z" fill="#4285F4" style="fill:#4285F4;fill:color(display-p3 0.2588 0.5216 0.9569);fill-opacity:1;"/>
<path fill-rule="evenodd" clip-rule="evenodd" d="M14.4926 21.543C16.4068 21.543 18.0117 20.9081 19.1847 19.8253L16.8934 18.0464C16.2586 18.4718 15.4465 18.7232 14.4926 18.7232C12.6461 18.7232 11.0831 17.476 10.5256 15.8003H8.15697V17.6372C9.32355 19.9542 11.7212 21.543 14.4926 21.543Z" fill="#34A853" style="fill:#34A853;fill:color(display-p3 0.2039 0.6588 0.3255);fill-opacity:1;"/>
<path fill-rule="evenodd" clip-rule="evenodd" d="M10.5259 15.8005C10.3841 15.3751 10.3035 14.9207 10.3035 14.4535C10.3035 13.9862 10.3841 13.5318 10.5259 13.1064V11.2695H8.15726C7.67709 12.2266 7.40317 13.3094 7.40317 14.4535C7.40317 15.5975 7.67709 16.6803 8.15726 17.6374L10.5259 15.8005Z" fill="#FBBC05" style="fill:#FBBC05;fill:color(display-p3 0.9843 0.7373 0.0196);fill-opacity:1;"/>
<path fill-rule="evenodd" clip-rule="evenodd" d="M14.4926 10.1835C15.5335 10.1835 16.4681 10.5413 17.2028 11.2438L19.2363 9.21032C18.0085 8.0663 16.4036 7.36377 14.4926 7.36377C11.7212 7.36377 9.32355 8.95251 8.15697 11.2696L10.5256 13.1065C11.0831 11.4307 12.6461 10.1835 14.4926 10.1835Z" fill="#EA4335" style="fill:#EA4335;fill:color(display-p3 0.9176 0.2627 0.2078);fill-opacity:1;"/>
</svg>
